<svg width="59" height="59" viewBox="0 0 59 59" fill="none" xmlns="http://www.w3.org/2000/svg">
<g filter="url(#filter0_i_3018_4028)">
<circle cx="29.5" cy="29.5" r="29.5" fill="url(#paint0_linear_3018_4028)"/>
</g>
<path d="M25.4468 34.2403C25.573 34.5753 25.4077 34.9511 25.076 35.0785C24.7443 35.2058 24.3722 35.039 24.2461 34.704C24.2108 34.611 24.1427 34.5358 24.0594 34.49C23.9774 34.4454 23.8778 34.4288 23.7781 34.4492C23.681 34.4696 23.5965 34.5257 23.5398 34.6008C23.483 34.676 23.4502 34.7728 23.4553 34.8734C23.459 34.9664 23.4956 35.0492 23.5536 35.1027C23.6104 35.1536 23.6962 35.1842 23.8059 35.1804C24.2738 35.1625 24.6724 35.3218 24.9663 35.5893C25.2804 35.8759 25.4683 36.2822 25.4885 36.7255C25.5074 37.1446 25.375 37.542 25.1366 37.8541C24.9651 38.0783 24.7393 38.2591 24.4744 38.3763V38.4107C24.4744 38.7712 24.1856 39.0629 23.8286 39.0629C23.4717 39.0629 23.1828 38.7712 23.1828 38.4107V38.4056C23.1147 38.3789 23.0466 38.347 22.9823 38.3127C22.6392 38.1241 22.3592 37.8146 22.2104 37.421C22.0843 37.086 22.2495 36.7102 22.5812 36.5828C22.9129 36.4555 23.285 36.6223 23.4111 36.9573C23.4464 37.0503 23.5146 37.1255 23.5978 37.1713C23.6798 37.2159 23.7794 37.2325 23.8791 37.2121C23.9762 37.1917 24.0607 37.1356 24.1175 37.0605C24.1742 36.9853 24.207 36.8885 24.202 36.7879C24.1982 36.6949 24.1616 36.6121 24.1036 36.5586C24.0468 36.5077 23.9611 36.4771 23.8513 36.4809C23.3834 36.4988 22.9848 36.3395 22.6909 36.072C22.3768 35.7867 22.1889 35.3804 22.1675 34.9358C22.1485 34.5167 22.281 34.1206 22.5206 33.8072C22.6922 33.5843 22.918 33.4022 23.1828 33.285V33.2518C23.1828 32.8913 23.4717 32.5997 23.8286 32.5997C24.1856 32.5997 24.4744 32.8914 24.4744 33.2518V33.2569C24.5425 33.2837 24.6106 33.3155 24.675 33.3499C25.018 33.5384 25.2981 33.848 25.4469 34.2416L25.4468 34.2403ZM34.8147 32.5844C35.1716 32.5844 35.4605 32.8761 35.4605 33.2366C35.4605 33.5971 35.1716 33.8888 34.8147 33.8888H28.2153C28.4739 34.4836 28.6177 35.1396 28.6177 35.83C28.6177 36.5191 28.4739 37.1751 28.2153 37.77H36.6206V17.2657C36.6206 17.0007 36.5134 16.76 36.3419 16.5868C36.1703 16.4135 35.9307 16.3053 35.6696 16.3053H22.2417C22.3729 16.5919 22.4473 16.9103 22.4473 17.2453V31.1984C22.885 31.0647 23.3491 30.9934 23.8284 30.9934C25.1477 30.9934 26.3435 31.5347 27.2114 32.4098L27.2152 32.4137C27.2707 32.4697 27.3262 32.5283 27.3791 32.5882L27.422 32.5869H34.8157L34.8147 32.5844ZM25.5566 40.3418V42.7556C25.5566 43.0906 25.4822 43.4091 25.3498 43.6957H38.7777C39.0337 43.6957 39.2671 43.5899 39.4349 43.4193C39.6026 43.2498 39.7086 43.0142 39.7086 42.7556V39.0743H27.3778C27.3249 39.1329 27.2719 39.1903 27.2164 39.2463L27.2126 39.2501C26.7447 39.7214 26.1822 40.0959 25.5566 40.3418ZM23.3455 43.6956C23.5978 43.6918 23.8261 43.5874 23.9926 43.4205C24.1603 43.2498 24.265 43.0142 24.265 42.7556V40.6474C24.1212 40.6615 23.9762 40.6678 23.8286 40.6678C23.3253 40.6678 22.8385 40.5888 22.3819 40.4424V42.7339C22.3819 42.9989 22.4891 43.2396 22.6606 43.4128C22.8322 43.586 23.0718 43.6943 23.3329 43.6943H23.3442L23.3455 43.6956ZM27.3262 35.83C27.3262 34.853 26.9352 33.969 26.3045 33.3321C25.6714 32.6926 24.796 32.2977 23.8286 32.2977C22.8611 32.2977 21.9858 32.6926 21.3551 33.3295C20.7219 33.9689 20.3309 34.853 20.3309 35.83C20.3309 36.807 20.7219 37.691 21.3526 38.3279C21.9858 38.9673 22.8611 39.3622 23.8286 39.3622C25.771 39.3622 27.3262 37.7738 27.3262 35.83ZM37.9123 37.77H40.3542C40.7112 37.77 41 38.0617 41 38.4221V42.7556C41 43.3734 40.7503 43.9351 40.3479 44.3415C39.9456 44.7478 39.3893 45 38.7776 45H23.3328C22.7148 45 22.1535 44.7452 21.7474 44.3351C21.3412 43.9249 21.089 43.3581 21.089 42.7339V39.7965C20.8581 39.6335 20.6425 39.4513 20.4444 39.2513L20.4406 39.2475C19.5741 38.3711 19.0368 37.1623 19.0368 35.8301C19.0368 34.4977 19.5729 33.2901 20.4394 32.4126C20.6576 32.1923 20.8972 31.9923 21.1533 31.8178V22.23H18.6458C18.2888 22.23 18 21.9383 18 21.5778V17.2444C18 16.6266 18.2497 16.0649 18.6521 15.6585L18.6912 15.6216C19.091 15.2369 19.6309 15 20.2224 15H35.6671C36.2852 15 36.8465 15.2548 37.2526 15.6649C37.6588 16.0751 37.911 16.6419 37.911 17.2661V37.7704L37.9123 37.77ZM34.8145 28.9489C35.1715 28.9489 35.4603 29.2406 35.4603 29.601C35.4603 29.9615 35.1715 30.2532 34.8145 30.2532H27.4209C27.0639 30.2532 26.7751 29.9615 26.7751 29.601C26.7751 29.2405 27.0639 28.9489 27.4209 28.9489H34.8145ZM25.7053 28.9489C26.0623 28.9489 26.3511 29.2406 26.3511 29.601C26.3511 29.9615 26.0623 30.2532 25.7053 30.2532H24.2523C23.8953 30.2532 23.6065 29.9615 23.6065 29.601C23.6065 29.2405 23.8953 28.9489 24.2523 28.9489H25.7053ZM34.8145 25.3123C35.1715 25.3123 35.4603 25.604 35.4603 25.9645C35.4603 26.325 35.1715 26.6167 34.8145 26.6167H27.4209C27.0639 26.6167 26.7751 26.325 26.7751 25.9645C26.7751 25.604 27.0639 25.3123 27.4209 25.3123H34.8145ZM25.7053 25.3123C26.0623 25.3123 26.3511 25.604 26.3511 25.9645C26.3511 26.325 26.0623 26.6167 25.7053 26.6167H24.2523C23.8953 26.6167 23.6065 26.325 23.6065 25.9645C23.6065 25.604 23.8953 25.3123 24.2523 25.3123H25.7053ZM34.8145 21.6757C35.1715 21.6757 35.4603 21.9674 35.4603 22.3279C35.4603 22.6884 35.1715 22.9801 34.8145 22.9801H27.4209C27.0639 22.9801 26.7751 22.6884 26.7751 22.3279C26.7751 21.9674 27.0639 21.6757 27.4209 21.6757H34.8145ZM25.7053 21.6757C26.0623 21.6757 26.3511 21.9674 26.3511 22.3279C26.3511 22.6884 26.0623 22.9801 25.7053 22.9801H24.2523C23.8953 22.9801 23.6065 22.6884 23.6065 22.3279C23.6065 21.9674 23.8953 21.6757 24.2523 21.6757H25.7053ZM19.2929 20.9254H21.1546V17.2442C21.1546 16.9856 21.0499 16.75 20.8809 16.5805C20.7132 16.4098 20.4798 16.3041 20.2238 16.3041C19.9791 16.3041 19.7558 16.3997 19.5893 16.5551L19.5666 16.5805C19.3989 16.7499 19.2929 16.9856 19.2929 17.2442L19.2929 20.9254Z" fill="white"/>
<defs>
<filter id="filter0_i_3018_4028" x="0" y="0" width="59" height="63" filterUnits="userSpaceOnUse" color-interpolation-filters="sRGB">
<feFlood flood-opacity="0" result="BackgroundImageFix"/>
<feBlend mode="normal" in="SourceGraphic" in2="BackgroundImageFix" result="shape"/>
<feColorMatrix in="SourceAlpha" type="matrix" values="0 0 0 0 0 0 0 0 0 0 0 0 0 0 0 0 0 0 127 0" result="hardAlpha"/>
<feOffset dy="4"/>
<feGaussianBlur stdDeviation="18.5"/>
<feComposite in2="hardAlpha" operator="arithmetic" k2="-1" k3="1"/>
<feColorMatrix type="matrix" values="0 0 0 0 0 0 0 0 0 0 0 0 0 0 0 0 0 0 0.25 0"/>
<feBlend mode="normal" in2="shape" result="effect1_innerShadow_3018_4028"/>
</filter>
<linearGradient id="paint0_linear_3018_4028" x1="15.9368" y1="12.546" x2="49.1667" y2="51.2011" gradientUnits="userSpaceOnUse">
<stop stop-color="#943C34"/>
<stop offset="1" stop-color="#660070"/>
</linearGradient>
</defs>
</svg>
