<svg width="59" height="59" viewBox="0 0 59 59" fill="none" xmlns="http://www.w3.org/2000/svg">
<g filter="url(#filter0_i_3142_6441)">
<g filter="url(#filter1_i_3142_6441)">
<circle cx="29.5" cy="29.5" r="29.5" fill="url(#paint0_linear_3142_6441)"/>
</g>
</g>
<path d="M40 14H36C35.7348 14 35.4804 14.1054 35.2929 14.2929C35.1054 14.4804 35 14.7348 35 15C35 15.2652 35.1054 15.5196 35.2929 15.7071C35.4804 15.8946 35.7348 16 36 16H39V42H19V16H22C22.2652 16 22.5196 15.8946 22.7071 15.7071C22.8946 15.5196 23 15.2652 23 15C23 14.7348 22.8946 14.4804 22.7071 14.2929C22.5196 14.1054 22.2652 14 22 14H18C17.7348 14 17.4804 14.1054 17.2929 14.2929C17.1054 14.4804 17 14.7348 17 15V43C17 43.2652 17.1054 43.5196 17.2929 43.7071C17.4804 43.8946 17.7348 44 18 44H40C40.2652 44 40.5196 43.8946 40.7071 43.7071C40.8946 43.5196 41 43.2652 41 43V15C41 14.7348 40.8946 14.4804 40.7071 14.2929C40.5196 14.1054 40.2652 14 40 14Z" fill="white"/>
<path d="M25 20H33C33.2652 20 33.5196 19.8946 33.7071 19.7071C33.8946 19.5196 34 19.2652 34 19V15C34 14.7348 33.8946 14.4804 33.7071 14.2929C33.5196 14.1054 33.2652 14 33 14H25C24.7348 14 24.4804 14.1054 24.2929 14.2929C24.1054 14.4804 24 14.7348 24 15V19C24 19.2652 24.1054 19.5196 24.2929 19.7071C24.4804 19.8946 24.7348 20 25 20ZM26 16H32V18H26V16Z" fill="white"/>
<path d="M25 36C25.2652 36 25.5196 35.8946 25.7071 35.7071C25.8946 35.5196 26 35.2652 26 35V31.41L29.09 34.5L27.29 36.29C27.1963 36.383 27.1219 36.4936 27.0711 36.6154C27.0203 36.7373 26.9942 36.868 26.9942 37C26.9942 37.132 27.0203 37.2627 27.0711 37.3846C27.1219 37.5064 27.1963 37.617 27.29 37.71C27.383 37.8037 27.4936 37.8781 27.6154 37.9289C27.7373 37.9797 27.868 38.0058 28 38.0058C28.132 38.0058 28.2627 37.9797 28.3846 37.9289C28.5064 37.8781 28.617 37.8037 28.71 37.71L30.5 35.91L32.29 37.71C32.383 37.8037 32.4936 37.8781 32.6154 37.9289C32.7373 37.9797 32.868 38.0058 33 38.0058C33.132 38.0058 33.2627 37.9797 33.3846 37.9289C33.5064 37.8781 33.617 37.8037 33.71 37.71C33.8037 37.617 33.8781 37.5064 33.9289 37.3846C33.9797 37.2627 34.0058 37.132 34.0058 37C34.0058 36.868 33.9797 36.7373 33.9289 36.6154C33.8781 36.4936 33.8037 36.383 33.71 36.29L31.91 34.5L33.71 32.71C33.8983 32.5217 34.0041 32.2663 34.0041 32C34.0041 31.7337 33.8983 31.4783 33.71 31.29C33.5217 31.1017 33.2663 30.9959 33 30.9959C32.7337 30.9959 32.4783 31.1017 32.29 31.29L30.5 33.09L27.41 30H28C29.0609 30 30.0783 29.5786 30.8284 28.8284C31.5786 28.0783 32 27.0609 32 26C32 24.9391 31.5786 23.9217 30.8284 23.1716C30.0783 22.4214 29.0609 22 28 22H25C24.7348 22 24.4804 22.1054 24.2929 22.2929C24.1054 22.4804 24 22.7348 24 23V35C24 35.2652 24.1054 35.5196 24.2929 35.7071C24.4804 35.8946 24.7348 36 25 36ZM26 24H28C28.5304 24 29.0391 24.2107 29.4142 24.5858C29.7893 24.9609 30 25.4696 30 26C30 26.5304 29.7893 27.0391 29.4142 27.4142C29.0391 27.7893 28.5304 28 28 28H26V24Z" fill="white"/>
<defs>
<filter id="filter0_i_3142_6441" x="0" y="0" width="59" height="63" filterUnits="userSpaceOnUse" color-interpolation-filters="sRGB">
<feFlood flood-opacity="0" result="BackgroundImageFix"/>
<feBlend mode="normal" in="SourceGraphic" in2="BackgroundImageFix" result="shape"/>
<feColorMatrix in="SourceAlpha" type="matrix" values="0 0 0 0 0 0 0 0 0 0 0 0 0 0 0 0 0 0 127 0" result="hardAlpha"/>
<feOffset dy="4"/>
<feGaussianBlur stdDeviation="2"/>
<feComposite in2="hardAlpha" operator="arithmetic" k2="-1" k3="1"/>
<feColorMatrix type="matrix" values="0 0 0 0 0 0 0 0 0 0 0 0 0 0 0 0 0 0 0.25 0"/>
<feBlend mode="normal" in2="shape" result="effect1_innerShadow_3142_6441"/>
</filter>
<filter id="filter1_i_3142_6441" x="0" y="0" width="59" height="63" filterUnits="userSpaceOnUse" color-interpolation-filters="sRGB">
<feFlood flood-opacity="0" result="BackgroundImageFix"/>
<feBlend mode="normal" in="SourceGraphic" in2="BackgroundImageFix" result="shape"/>
<feColorMatrix in="SourceAlpha" type="matrix" values="0 0 0 0 0 0 0 0 0 0 0 0 0 0 0 0 0 0 127 0" result="hardAlpha"/>
<feOffset dy="4"/>
<feGaussianBlur stdDeviation="18.5"/>
<feComposite in2="hardAlpha" operator="arithmetic" k2="-1" k3="1"/>
<feColorMatrix type="matrix" values="0 0 0 0 0 0 0 0 0 0 0 0 0 0 0 0 0 0 0.25 0"/>
<feBlend mode="normal" in2="shape" result="effect1_innerShadow_3142_6441"/>
</filter>
<linearGradient id="paint0_linear_3142_6441" x1="15.9368" y1="12.546" x2="49.1667" y2="51.2011" gradientUnits="userSpaceOnUse">
<stop stop-color="#8C255D"/>
<stop offset="1" stop-color="#D58310"/>
</linearGradient>
</defs>
</svg>
