<svg width="59" height="59" viewBox="0 0 59 59" fill="none" xmlns="http://www.w3.org/2000/svg">
<g filter="url(#filter0_i_3142_6442)">
<g filter="url(#filter1_i_3142_6442)">
<circle cx="29.5" cy="29.5" r="29.5" fill="url(#paint0_linear_3142_6442)"/>
</g>
</g>
<path d="M17.0226 23.8188H20.0417V37.6258C20.0417 39.2424 21.4274 40.5549 23.099 40.5549H30.97L31.0517 46.0497C31.0533 46.1684 31.0854 46.2847 31.1447 46.3875C31.2041 46.4903 31.2888 46.5762 31.3908 46.637C31.4927 46.6977 31.6086 46.7313 31.7273 46.7346C31.8459 46.7379 31.9634 46.7107 32.0686 46.6556L35.3295 44.9459L38.5903 46.656C38.6957 46.7113 38.8136 46.7385 38.9326 46.7351C39.0516 46.7318 39.1678 46.6978 39.2699 46.6366C39.372 46.5754 39.4566 46.4889 39.5157 46.3856C39.5748 46.2822 39.6063 46.1654 39.6072 46.0463L39.6617 40.5549H40.9774C42.6489 40.5549 44 39.2424 44 37.6258V17.3352C44 14.9573 42.0024 13.055 39.5362 13.055H18.2559C18.0823 12.9855 17.9087 13.0016 17.7281 13.0016C15.67 13.0016 14 14.6022 14 16.5893V20.886C14 22.5029 15.3511 23.8188 17.0226 23.8188ZM35.3295 39.4274C33.3358 39.4274 31.7138 37.8874 31.7138 35.9945C31.7138 34.1015 33.3358 32.5619 35.3295 32.5619C37.3233 32.5619 38.9453 34.1019 38.9453 35.9948C38.9453 37.8877 37.3232 39.4274 35.3295 39.4274ZM35.652 43.5469C35.5525 43.4947 35.4418 43.4674 35.3295 43.4674C35.2171 43.4674 35.1064 43.4947 35.0069 43.5469L32.4236 44.9016L32.3488 39.8652C33.2144 40.4802 34.249 40.8124 35.3108 40.8161C36.3726 40.8199 37.4095 40.4949 38.2794 39.886L38.2297 44.8984L35.652 43.5469ZM42.6111 17.3352V37.6258C42.6111 38.4768 41.8831 39.1661 40.9774 39.1661H39.6756L39.6835 38.366C40.1093 37.6479 40.334 36.8285 40.3342 35.9937C40.3342 33.3349 38.0891 31.1722 35.3295 31.1722C32.5699 31.1722 30.3249 33.3355 30.3249 35.9943C30.3246 36.8031 30.5355 37.598 30.9365 38.3004L30.9494 39.1661H23.099C22.1933 39.1661 21.4306 38.4768 21.4306 37.6258V16.5893C21.4306 15.7716 21.1724 14.9994 20.6953 14.4438H39.5362C41.2365 14.4438 42.6111 15.7231 42.6111 17.3352ZM15.3889 16.5893C15.3889 15.368 16.4306 14.3744 17.75 14.3744V14.4438H18.1492C18.6719 14.5094 19.1526 14.7637 19.5011 15.1587C19.8496 15.5538 20.0418 16.0625 20.0417 16.5893V22.43H17.0226C16.1169 22.43 15.3889 21.737 15.3889 20.886V16.5893Z" fill="white"/>
<path d="M27.3341 25.2101H30.0424V27.9184C30.0424 28.1026 30.1156 28.2792 30.2458 28.4095C30.3761 28.5397 30.5527 28.6128 30.7369 28.6128H33.5146C33.6988 28.6128 33.8755 28.5397 34.0057 28.4095C34.1359 28.2792 34.2091 28.1026 34.2091 27.9184V25.2101H36.9174C37.1016 25.2101 37.2782 25.1369 37.4085 25.0067C37.5387 24.8764 37.6119 24.6998 37.6119 24.5156V21.7378C37.6119 21.5537 37.5387 21.377 37.4085 21.2468C37.2782 21.1166 37.1016 21.0434 36.9174 21.0434H34.2091V18.3351C34.2091 18.1509 34.1359 17.9743 34.0057 17.844C33.8755 17.7138 33.6988 17.6406 33.5146 17.6406H30.7369C30.5527 17.6406 30.3761 17.7138 30.2458 17.844C30.1156 17.9743 30.0424 18.1509 30.0424 18.3351V21.0434H27.3341C27.1499 21.0434 26.9733 21.1166 26.843 21.2468C26.7128 21.377 26.6396 21.5537 26.6396 21.7378V24.5156C26.6396 24.6998 26.7128 24.8764 26.843 25.0067C26.9733 25.1369 27.1499 25.2101 27.3341 25.2101ZM28.0285 22.4323H30.7369C30.921 22.4323 31.0977 22.3591 31.2279 22.2289C31.3582 22.0987 31.4313 21.922 31.4313 21.7378V19.0295H32.8202V21.7378C32.8202 21.922 32.8934 22.0987 33.0236 22.2289C33.1538 22.3591 33.3305 22.4323 33.5146 22.4323H36.223V23.8212H33.5146C33.3305 23.8212 33.1538 23.8943 33.0236 24.0246C32.8934 24.1548 32.8202 24.3314 32.8202 24.5156V27.224H31.4313V24.5156C31.4313 24.3314 31.3582 24.1548 31.2279 24.0246C31.0977 23.8943 30.921 23.8212 30.7369 23.8212H28.0285V22.4323Z" fill="white"/>
<defs>
<filter id="filter0_i_3142_6442" x="0" y="0" width="59" height="63" filterUnits="userSpaceOnUse" color-interpolation-filters="sRGB">
<feFlood flood-opacity="0" result="BackgroundImageFix"/>
<feBlend mode="normal" in="SourceGraphic" in2="BackgroundImageFix" result="shape"/>
<feColorMatrix in="SourceAlpha" type="matrix" values="0 0 0 0 0 0 0 0 0 0 0 0 0 0 0 0 0 0 127 0" result="hardAlpha"/>
<feOffset dy="10"/>
<feGaussianBlur stdDeviation="2"/>
<feComposite in2="hardAlpha" operator="arithmetic" k2="-1" k3="1"/>
<feColorMatrix type="matrix" values="0 0 0 0 0 0 0 0 0 0 0 0 0 0 0 0 0 0 0.25 0"/>
<feBlend mode="normal" in2="shape" result="effect1_innerShadow_3142_6442"/>
</filter>
<filter id="filter1_i_3142_6442" x="0" y="0" width="59" height="63" filterUnits="userSpaceOnUse" color-interpolation-filters="sRGB">
<feFlood flood-opacity="0" result="BackgroundImageFix"/>
<feBlend mode="normal" in="SourceGraphic" in2="BackgroundImageFix" result="shape"/>
<feColorMatrix in="SourceAlpha" type="matrix" values="0 0 0 0 0 0 0 0 0 0 0 0 0 0 0 0 0 0 127 0" result="hardAlpha"/>
<feOffset dy="4"/>
<feGaussianBlur stdDeviation="18.5"/>
<feComposite in2="hardAlpha" operator="arithmetic" k2="-1" k3="1"/>
<feColorMatrix type="matrix" values="0 0 0 0 0 0 0 0 0 0 0 0 0 0 0 0 0 0 0.25 0"/>
<feBlend mode="normal" in2="shape" result="effect1_innerShadow_3142_6442"/>
</filter>
<linearGradient id="paint0_linear_3142_6442" x1="17" y1="16.5" x2="44" y2="45.5" gradientUnits="userSpaceOnUse">
<stop stop-color="#050772"/>
<stop offset="1" stop-color="#AD0744"/>
</linearGradient>
</defs>
</svg>
