<svg width="59" height="59" viewBox="0 0 59 59" fill="none" xmlns="http://www.w3.org/2000/svg">
<g filter="url(#filter0_i_3143_6456)">
<g filter="url(#filter1_i_3143_6456)">
<circle cx="29.5" cy="29.5" r="29.5" fill="url(#paint0_linear_3143_6456)"/>
</g>
</g>
<path d="M42.6464 27.7953L30.8935 14.8212C30.6418 14.5819 30.3438 14.3967 30.0179 14.277C29.6919 14.1573 29.3449 14.1057 28.9982 14.1252C28.6521 14.1055 28.3057 14.1571 27.9804 14.2768C27.6551 14.3965 27.3579 14.5818 27.1072 14.8212L15.3543 27.7953C15.1768 27.9786 15.0582 28.2107 15.0137 28.4619C14.9692 28.7131 15.001 28.9718 15.1048 29.2048C15.398 29.8833 16.2253 30.2904 17.2628 30.2904H17.7005C17.696 30.3574 17.696 30.4247 17.7005 30.4917V41.9383C17.7092 43.0151 18.7204 43.8905 20.0117 43.8905H37.989C39.3022 43.8905 40.2915 43.0151 40.2915 41.9383V30.4917C40.296 30.4247 40.296 30.3574 40.2915 30.2904H40.7292C41.7666 30.2904 42.5939 29.8527 42.8872 29.2048C42.9915 28.9725 43.0243 28.7144 42.9815 28.4634C42.9386 28.2124 42.822 27.9798 42.6464 27.7953ZM31.3663 42.1396H26.6344V37.5566C26.6344 36.2434 27.4092 35.1535 28.3328 35.1535H29.6679C30.5871 35.1535 31.3663 36.2522 31.3663 37.5566V42.1396ZM38.1116 30.321C38.1946 30.322 38.2765 30.3404 38.3519 30.3751C38.4273 30.4098 38.4946 30.46 38.5493 30.5224V41.947C38.481 42.024 38.3954 42.0836 38.2995 42.1209C38.2036 42.1582 38.1002 42.1721 37.9978 42.1615H33.1172V37.5566C33.1172 35.2629 31.572 33.4026 29.6679 33.4026H28.3328C26.4287 33.4026 24.8835 35.2629 24.8835 37.5566V42.1396H20.0117C19.9107 42.1468 19.8094 42.1326 19.7144 42.0979C19.6193 42.0632 19.5327 42.0088 19.4601 41.9383V30.5049C19.5199 30.4373 19.5933 30.3832 19.6756 30.3462C19.7578 30.3092 19.8471 30.2902 19.9373 30.2904H37.989L38.1116 30.321ZM40.738 28.5701H17.2628C17.1943 28.5749 17.1255 28.5749 17.057 28.5701L28.3941 16.003C28.5838 15.9197 28.7888 15.8767 28.996 15.8767C29.2032 15.8767 29.4081 15.9197 29.5978 16.003L40.9437 28.5264C40.8755 28.5355 40.8068 28.5399 40.738 28.5395V28.5701Z" fill="white"/>
<defs>
<filter id="filter0_i_3143_6456" x="0" y="0" width="59" height="63" filterUnits="userSpaceOnUse" color-interpolation-filters="sRGB">
<feFlood flood-opacity="0" result="BackgroundImageFix"/>
<feBlend mode="normal" in="SourceGraphic" in2="BackgroundImageFix" result="shape"/>
<feColorMatrix in="SourceAlpha" type="matrix" values="0 0 0 0 0 0 0 0 0 0 0 0 0 0 0 0 0 0 127 0" result="hardAlpha"/>
<feOffset dy="4"/>
<feGaussianBlur stdDeviation="2"/>
<feComposite in2="hardAlpha" operator="arithmetic" k2="-1" k3="1"/>
<feColorMatrix type="matrix" values="0 0 0 0 0 0 0 0 0 0 0 0 0 0 0 0 0 0 0.25 0"/>
<feBlend mode="normal" in2="shape" result="effect1_innerShadow_3143_6456"/>
</filter>
<filter id="filter1_i_3143_6456" x="0" y="0" width="59" height="63" filterUnits="userSpaceOnUse" color-interpolation-filters="sRGB">
<feFlood flood-opacity="0" result="BackgroundImageFix"/>
<feBlend mode="normal" in="SourceGraphic" in2="BackgroundImageFix" result="shape"/>
<feColorMatrix in="SourceAlpha" type="matrix" values="0 0 0 0 0 0 0 0 0 0 0 0 0 0 0 0 0 0 127 0" result="hardAlpha"/>
<feOffset dy="4"/>
<feGaussianBlur stdDeviation="18.5"/>
<feComposite in2="hardAlpha" operator="arithmetic" k2="-1" k3="1"/>
<feColorMatrix type="matrix" values="0 0 0 0 0 0 0 0 0 0 0 0 0 0 0 0 0 0 0.25 0"/>
<feBlend mode="normal" in2="shape" result="effect1_innerShadow_3143_6456"/>
</filter>
<linearGradient id="paint0_linear_3143_6456" x1="15.9368" y1="12.546" x2="49.1667" y2="51.2011" gradientUnits="userSpaceOnUse">
<stop stop-color="#5E2474"/>
<stop offset="1" stop-color="#A864CF"/>
</linearGradient>
</defs>
</svg>
