<svg width="59" height="59" viewBox="0 0 59 59" fill="none" xmlns="http://www.w3.org/2000/svg">
<g filter="url(#filter0_i_3142_6443)">
<g filter="url(#filter1_i_3142_6443)">
<circle cx="29.5" cy="29.5" r="29.5" fill="url(#paint0_linear_3142_6443)"/>
</g>
</g>
<path d="M29.4738 21.8125C26.2978 21.8125 23.6992 24.4111 23.6992 27.5871C23.6992 30.7631 26.2978 33.3617 29.4738 33.3617C32.6498 33.3617 35.2484 30.7631 35.2484 27.5871C35.2484 24.4111 32.6498 21.8125 29.4738 21.8125ZM29.4738 31.4368C27.3565 31.4368 25.6241 29.7044 25.6241 27.5871C25.6241 25.4697 27.3565 23.7374 29.4738 23.7374C31.5912 23.7374 33.3235 25.4697 33.3235 27.5871C33.3235 29.7044 31.5912 31.4368 29.4738 31.4368Z" fill="white"/>
<path d="M29.4741 17C22.0152 17 16 23.0152 16 30.4741C16 34.1313 17.4918 37.4998 19.8497 39.9059C20.4272 40.4834 21.0528 41.0127 21.7746 41.4939C23.9401 43.0338 26.5868 43.9 29.4741 43.9C32.3614 43.9 35.0081 42.9857 37.1735 41.4939C37.8472 41.0127 38.4728 40.4834 39.0984 39.9059C41.5045 37.4517 42.9481 34.1313 42.9481 30.4741C42.9481 23.0152 36.9329 17 29.4741 17ZM29.4741 42.0233C26.5868 42.0233 23.9882 40.9646 21.9671 39.2322C22.4964 37.4998 24.0844 36.2487 25.9612 36.2487H33.0351C34.9118 36.2487 36.4998 37.4998 37.0292 39.2322C34.9599 40.9646 32.3614 42.0233 29.4741 42.0233ZM38.4728 37.6923C37.4623 35.6712 35.393 34.3238 33.0351 34.3238H25.9612C23.5551 34.3238 21.4859 35.7193 20.5234 37.6923C18.8873 35.7193 17.9249 33.217 17.9249 30.4741C17.9249 24.122 23.122 18.9249 29.4741 18.9249C35.8261 18.9249 41.0233 24.122 41.0233 30.4741C41.0233 33.217 40.0608 35.7193 38.4728 37.6923Z" fill="white"/>
<defs>
<filter id="filter0_i_3142_6443" x="0" y="0" width="59" height="63" filterUnits="userSpaceOnUse" color-interpolation-filters="sRGB">
<feFlood flood-opacity="0" result="BackgroundImageFix"/>
<feBlend mode="normal" in="SourceGraphic" in2="BackgroundImageFix" result="shape"/>
<feColorMatrix in="SourceAlpha" type="matrix" values="0 0 0 0 0 0 0 0 0 0 0 0 0 0 0 0 0 0 127 0" result="hardAlpha"/>
<feOffset dy="4"/>
<feGaussianBlur stdDeviation="2"/>
<feComposite in2="hardAlpha" operator="arithmetic" k2="-1" k3="1"/>
<feColorMatrix type="matrix" values="0 0 0 0 0 0 0 0 0 0 0 0 0 0 0 0 0 0 0.25 0"/>
<feBlend mode="normal" in2="shape" result="effect1_innerShadow_3142_6443"/>
</filter>
<filter id="filter1_i_3142_6443" x="0" y="0" width="59" height="63" filterUnits="userSpaceOnUse" color-interpolation-filters="sRGB">
<feFlood flood-opacity="0" result="BackgroundImageFix"/>
<feBlend mode="normal" in="SourceGraphic" in2="BackgroundImageFix" result="shape"/>
<feColorMatrix in="SourceAlpha" type="matrix" values="0 0 0 0 0 0 0 0 0 0 0 0 0 0 0 0 0 0 127 0" result="hardAlpha"/>
<feOffset dy="4"/>
<feGaussianBlur stdDeviation="18.5"/>
<feComposite in2="hardAlpha" operator="arithmetic" k2="-1" k3="1"/>
<feColorMatrix type="matrix" values="0 0 0 0 0 0 0 0 0 0 0 0 0 0 0 0 0 0 0.25 0"/>
<feBlend mode="normal" in2="shape" result="effect1_innerShadow_3142_6443"/>
</filter>
<linearGradient id="paint0_linear_3142_6443" x1="15.9368" y1="12.546" x2="49.1667" y2="51.2011" gradientUnits="userSpaceOnUse">
<stop stop-color="#FB1091"/>
<stop offset="1" stop-color="#10A1D5"/>
</linearGradient>
</defs>
</svg>
